<svg id="Capa_1" enable-background="new 0 0 512 512" height="512" viewBox="0 0 512 512" width="512" xmlns="http://www.w3.org/2000/svg"><g><path fill="#fff" d="m421 91h-30v30h-35.728l-30-60h-138.544l-30 60h-156.728v120h129.293c18.636-52.266 68.119-90 126.707-90s108.071 37.734 126.707 90h129.293v-120h-91zm30 120h-30v-30h30z"/><circle cx="256" cy="286" r="45"/><path fill="#fff" d="m256 391c57.891 0 105-47.109 105-105s-47.109-105-105-105-105 47.109-105 105 47.109 105 105 105zm0-180c41.353 0 75 33.647 75 75s-33.647 75-75 75-75-33.647-75-75 33.647-75 75-75z"/><path fill="#fff" d="m391 286c0 74.443-60.557 135-135 135s-135-60.557-135-135c0-5.136.954-10.01 1.516-15h-122.516v180h512v-180h-122.516c.562 4.99 1.516 9.864 1.516 15z"/></g></svg>